# xmcd CD database file
#
# Track frame offsets:
#	150
#	9709
#	19305
#	29993
#	42827
#	55211
#	67472
#	78957
#	90335
#	102539
#	114192
#	126489
#	140689
#	153304
#	166350
#	178184
#
# Disc length: 2529 seconds
#
# Revision: 0
# Processed by: cddbd v1.5.1PL0 Copyright (c) Steve Scherf et al.
# Submitted via: CDex 1.51
#
DISCID=e409df10
DTITLE=Muddy Waters - Quadromania 2 of 4 (24 bit remaster)
DYEAR=2005
DGENRE=Jazz
TTITLE0=You Got To Take Sick Some Of These Days 01
TTITLE1=Why Don't You Live So Good God Can Use You 02
TTITLE2=Mean Red Spider 03
TTITLE3=Jitterbug Blues 04
TTITLE4=Hard Days Blues 05
TTITLE5=Burying Ground Blues 06
TTITLE6=Gypsy Woman 07
TTITLE7=Little Anna May 08
TTITLE8=Good Lookin' Woman 09
TTITLE9=Mean Disposition 10
TTITLE10=I Can't Be Satisfied 11
TTITLE11=I Feel Like Goin' Home 12
TTITLE12=Train Fare Home 13
TTITLE13=Down South Blues 14
TTITLE14=Kind Hearted Woman 15
TTITLE15=Sittin' Here Drinkin' 16
EXTD=YEAR: 2005
EXTT0=
EXTT1=
EXTT2=
EXTT3=
EXTT4=
EXTT5=
EXTT6=
EXTT7=
EXTT8=
EXTT9=
EXTT10=
EXTT11=
EXTT12=
EXTT13=
EXTT14=
EXTT15=
PLAYORDER=
